<svg width="25" height="24" viewBox="0 0 25 24" fill="none" xmlns="http://www.w3.org/2000/svg">
<path fill-rule="evenodd" clip-rule="evenodd" d="M22.5617 9.10814C22.7676 8.74415 22.6272 8.28881 22.2481 8.0911C21.8689 7.89338 21.3946 8.02817 21.1886 8.39215C20.4535 9.69136 19.4874 10.8311 18.1279 11.6505C16.771 12.4683 14.9674 13.0001 12.5001 13.0001C10.033 13.0001 8.23209 12.4684 6.87653 11.6506C5.51819 10.8312 4.55156 9.69113 3.81061 8.39031C3.6036 8.02688 3.12889 7.89337 2.75032 8.0921C2.37175 8.29083 2.23268 8.74655 2.43968 9.10997C3.26792 10.564 4.39354 11.9183 6.02314 12.9074L4.65591 14.2199C4.35081 14.5128 4.35081 14.9877 4.65591 15.2806C4.961 15.5735 5.45566 15.5735 5.76076 15.2806L7.47847 13.6316C8.68017 14.1121 10.0806 14.4115 11.7188 14.4833V17.2502C11.7188 17.6645 12.0685 18.0002 12.5 18.0002C12.9315 18.0002 13.2812 17.6645 13.2812 17.2502V14.4833C14.9189 14.4115 16.32 14.1125 17.5224 13.6324L19.2392 15.2806C19.5443 15.5735 20.039 15.5735 20.3441 15.2806C20.6492 14.9877 20.6492 14.5128 20.3441 14.2199L18.9785 12.9089C20.6108 11.9197 21.7376 10.5645 22.5617 9.10814Z" fill="#202124"/>
</svg>
