<svg width="16" height="17" viewBox="0 0 16 17" fill="none" xmlns="http://www.w3.org/2000/svg">
<path fill-rule="evenodd" clip-rule="evenodd" d="M11.4818 2.48106C10.6981 1.83993 9.5431 1.95549 8.90197 2.73918L2.54767 10.5064C2.1997 10.9317 2.06089 11.4907 2.16944 12.0294L2.56036 13.9693C2.67014 14.5141 3.14897 14.9058 3.70472 14.9055L5.68357 14.9043C6.2331 14.904 6.75351 14.6571 7.10147 14.2318L12.1628 8.04514C12.1825 8.02841 12.2013 8.00991 12.2187 7.98968C12.2421 7.96255 12.2621 7.93362 12.2787 7.90342L13.4558 6.46462C14.0969 5.68093 13.9813 4.5259 13.1977 3.88477L11.4818 2.48106ZM11.7718 6.9437L12.6818 5.83142C12.9732 5.4752 12.9207 4.95018 12.5645 4.65876L10.8486 3.25505C10.4924 2.96363 9.96738 3.01616 9.67596 3.37237L8.83052 4.4058L11.7718 6.9437ZM8.19711 5.18005L3.32166 11.1396C3.16349 11.3329 3.10039 11.587 3.14974 11.8319L3.54065 13.7717C3.55633 13.8495 3.62474 13.9055 3.70413 13.9055L5.68298 13.9043C5.93276 13.9041 6.16931 13.792 6.32748 13.5986L11.1384 7.71795L8.19711 5.18005Z" fill="white"/>
</svg>
