<svg width="1em" height="1em" viewBox="0 0 14 14" fill="none" xmlns="http://www.w3.org/2000/svg">
<g id="Group 1261">
<g id="Union">
<path d="M7.75 4C7.75 4.41421 7.41421 4.75 7 4.75C6.58579 4.75 6.25 4.41421 6.25 4C6.25 3.58579 6.58579 3.25 7 3.25C7.41421 3.25 7.75 3.58579 7.75 4Z" fill="currentColor"/>
<path d="M7 5.5C6.58579 5.5 6.25 5.83579 6.25 6.25V10C6.25 10.4142 6.58579 10.75 7 10.75C7.41421 10.75 7.75 10.4142 7.75 10V6.25C7.75 5.83579 7.41421 5.5 7 5.5Z" fill="currentColor"/>
<path fill-rule="evenodd" clip-rule="evenodd" d="M7 13.75C10.7279 13.75 13.75 10.7279 13.75 7C13.75 3.27208 10.7279 0.25 7 0.25C3.27208 0.25 0.25 3.27208 0.25 7C0.25 10.7279 3.27208 13.75 7 13.75ZM7 12.625C10.1066 12.625 12.625 10.1066 12.625 7C12.625 3.8934 10.1066 1.375 7 1.375C3.8934 1.375 1.375 3.8934 1.375 7C1.375 10.1066 3.8934 12.625 7 12.625Z" fill="currentColor"/>
</g>
</g>
</svg>
